<?xml version="1.0" standalone="no"?>
<!DOCTYPE svg PUBLIC "-//W3C//DTD SVG 20010904//EN"
 "http://www.w3.org/TR/2001/REC-SVG-20010904/DTD/svg10.dtd">
<svg version="1.0" xmlns="http://www.w3.org/2000/svg"
 width="800.000000pt" height="800.000000pt" viewBox="0 0 800.000000 800.000000"
 preserveAspectRatio="xMidYMid meet">

<g transform="translate(0.000000,800.000000) scale(0.100000,-0.100000)"
fill="#000000" stroke="none">
<path d="M3327 7050 c-38 -17 -72 -28 -77 -25 -10 6 -84 -44 -143 -95 -25 -22
-68 -71 -96 -109 -54 -73 -141 -234 -141 -263 0 -9 -4 -20 -10 -23 -6 -4 -10
11 -11 37 0 73 -11 131 -25 146 -12 11 -14 9 -15 -20 -1 -24 -5 -16 -15 32
-14 67 -65 182 -72 162 -2 -6 6 -29 18 -52 15 -29 19 -51 15 -71 -8 -36 -21
-37 -47 -4 -11 14 -24 25 -30 25 -5 0 2 -14 16 -31 14 -17 26 -36 26 -42 -1
-7 -11 1 -24 17 l-24 28 5 -26 c3 -14 16 -37 30 -52 26 -28 24 -46 -2 -24 -29
24 -27 1 4 -45 17 -26 28 -51 24 -58 -4 -7 -9 -4 -14 9 -7 17 -8 17 -8 1 -1
-10 6 -32 15 -48 8 -17 13 -36 11 -42 -2 -7 -13 7 -25 30 -87 170 -365 270
-537 194 -40 -18 -119 -80 -112 -87 2 -2 26 3 52 11 54 16 64 13 45 -10 -17
-20 -9 -19 60 10 78 33 85 31 30 -6 l-45 -30 50 7 c46 6 49 6 36 -9 -12 -15
-11 -17 3 -17 9 0 33 7 53 15 44 19 56 12 16 -9 l-28 -15 57 -1 c63 0 85 -15
38 -25 -51 -11 -49 -29 3 -22 31 4 57 2 79 -8 l33 -14 -35 -1 c-80 -3 -75 -15
19 -44 51 -16 90 -30 88 -32 -2 -3 -46 3 -98 13 -140 26 -358 23 -469 -5 -96
-25 -261 -101 -347 -160 -51 -35 -173 -152 -173 -166 0 -10 115 46 139 67 l25
22 -18 -28 c-10 -16 -15 -31 -13 -34 7 -6 121 53 136 71 8 9 18 16 23 16 5 0
-6 -18 -23 -40 -18 -22 -30 -42 -28 -45 13 -12 133 51 203 107 44 35 84 65 89
67 5 2 -13 -25 -38 -60 -43 -59 -46 -64 -26 -67 24 -4 67 23 130 82 45 42 46
36 3 -23 l-25 -34 29 7 c16 4 36 13 44 20 22 19 136 86 146 86 5 0 -14 -22
-41 -50 -54 -55 -49 -67 10 -20 46 37 57 39 25 5 -26 -28 -22 -42 8 -26 12 6
30 11 42 11 11 0 46 14 77 30 31 17 65 30 77 29 13 0 15 -2 6 -5 -8 -3 -42
-18 -75 -34 -33 -16 -104 -49 -157 -74 -199 -92 -381 -238 -480 -384 -66 -98
-71 -112 -27 -82 19 13 52 39 73 59 21 20 36 29 33 21 -3 -8 -8 -23 -13 -34
-6 -17 -5 -17 16 -6 13 7 45 33 72 58 51 48 61 48 27 1 -16 -23 -17 -29 -6
-29 18 0 89 73 128 132 35 52 38 36 5 -32 -13 -28 -22 -50 -20 -50 19 0 60 42
90 91 19 33 37 59 39 59 2 0 -3 -20 -11 -45 -9 -25 -14 -50 -12 -55 2 -6 34
30 72 80 38 50 71 89 73 87 2 -2 -6 -24 -17 -48 -28 -63 -25 -75 10 -45 17 14
37 23 44 20 8 -3 26 15 46 45 36 57 43 62 34 26 -9 -37 1 -31 33 20 31 49 48
60 33 20 -13 -35 3 -31 34 9 23 31 120 96 142 96 15 0 -81 -91 -133 -126 -29
-19 -57 -43 -63 -54 -14 -25 -13 -77 2 -82 7 -3 -9 -34 -39 -79 -196 -294
-436 -815 -542 -1179 -28 -97 -81 -307 -81 -321 0 -3 12 -4 26 -1 34 6 46 -14
29 -48 -11 -22 -11 -31 -1 -51 7 -14 11 -30 9 -36 -3 -7 4 -9 16 -6 24 6 25
10 46 133 57 333 212 774 417 1185 103 206 220 397 205 336 -7 -29 11 -121 24
-121 5 0 9 9 9 19 0 11 3 21 8 23 10 4 42 63 42 78 0 6 7 18 15 26 8 9 15 28
15 42 0 15 8 35 18 43 11 9 24 43 31 78 7 33 14 61 17 61 3 0 2 -47 -2 -105
-7 -113 4 -139 26 -60 7 25 16 48 21 50 4 3 4 -9 -2 -27 -11 -39 -11 -195 0
-223 7 -17 9 -14 15 15 4 19 13 49 21 65 13 28 14 22 9 -65 l-4 -95 20 40 c14
27 19 32 15 15 -16 -80 -16 -128 1 -185 l18 -60 12 40 c7 22 13 48 13 57 1 9
6 20 12 24 8 4 9 -13 4 -59 -4 -35 -4 -79 0 -97 l7 -33 18 39 18 39 -4 -55
c-2 -34 -1 -46 4 -31 12 37 29 36 24 -1 -2 -18 1 -44 7 -58 9 -21 10 -18 5 20
-3 29 -1 40 5 31 5 -8 8 44 5 140 -3 152 -5 177 -19 252 -4 20 -5 37 -3 37 15
0 49 -42 77 -95 18 -33 30 -49 27 -35 -3 14 -6 31 -6 38 0 7 -4 10 -10 7 -10
-6 -14 7 -11 32 1 6 -3 14 -9 18 -5 3 -10 11 -10 16 0 6 6 7 13 3 8 -5 8 -3
-2 9 -7 9 -18 14 -24 10 -6 -4 -7 -1 -2 6 4 7 -2 22 -16 37 -28 29 -17 45 13
18 13 -11 18 -13 13 -4 -5 8 -10 29 -11 46 -1 28 -88 173 -114 189 -5 3 -15
16 -22 28 -22 43 34 -6 86 -74 48 -62 49 -63 43 -29 -7 39 -8 40 46 -47 15
-25 31 -43 34 -40 3 3 -3 29 -12 57 -9 28 -15 53 -13 55 2 2 21 -30 42 -70 46
-86 70 -105 61 -47 -5 33 -3 31 23 -24 43 -90 56 -92 47 -8 -4 38 -5 67 -2 64
3 -3 19 -41 36 -85 20 -53 30 -72 31 -55 1 14 4 19 7 12 2 -6 9 -10 14 -7 5 4
6 -1 3 -9 -3 -8 4 -31 16 -53 l21 -38 -6 85 c-4 47 -4 83 -1 80 2 -3 21 -48
40 -100 19 -52 35 -87 35 -78 1 9 5 19 10 23 5 3 9 -8 9 -24 -1 -18 12 -48 32
-78 23 -33 31 -40 26 -23 -3 14 -6 42 -6 63 0 22 -7 44 -17 55 -22 22 -44 81
-37 96 3 6 -1 3 -9 -6 -20 -25 -26 -13 -16 30 11 46 10 63 -1 37 -8 -18 -9
-18 -10 5 -6 78 -4 107 6 107 6 0 9 -9 6 -20 -4 -14 -1 -18 9 -15 21 8 51 -11
45 -28 -3 -7 0 -13 6 -11 6 1 16 -7 22 -18 6 -11 21 -34 32 -50 12 -17 38 -61
58 -100 19 -38 36 -63 36 -54 0 8 -23 60 -51 115 -53 101 -144 220 -219 286
-54 47 -184 112 -297 149 l-88 29 80 -6 c44 -3 88 -8 98 -10 34 -10 16 15 -33
47 -27 18 -50 34 -50 36 0 1 17 -4 38 -12 67 -26 232 -59 232 -47 0 4 -30 24
-66 46 -64 38 -79 55 -33 38 79 -29 107 -19 47 18 -55 34 -21 22 49 -16 36
-20 81 -40 99 -44 l33 -8 -22 29 c-11 16 -31 36 -44 44 -13 9 -23 20 -23 24 0
5 30 -8 68 -29 37 -21 85 -41 107 -45 l40 -7 -65 61 c-64 60 -64 60 -25 43 22
-10 55 -26 74 -36 18 -9 51 -19 72 -21 21 -3 47 -9 57 -14 9 -5 40 -12 67 -16
l50 -6 -42 36 c-63 54 -52 63 16 15 49 -34 70 -43 118 -47 42 -3 54 -1 43 6
-8 6 -21 11 -28 11 -23 0 -124 78 -110 83 9 4 2 15 -20 35 -40 35 -36 65 6 52
42 -12 102 -43 102 -52 0 -4 5 -8 10 -8 23 0 7 19 -41 49 -28 17 -53 31 -56
31 -3 0 -29 11 -58 25 -65 30 -213 50 -310 40 -141 -13 -300 -62 -433 -131
-69 -36 -78 -25 -10 14 29 16 62 40 73 52 l20 23 -20 -6 c-11 -3 -33 -9 -50
-13 -16 -4 -42 -13 -57 -21 -16 -7 -28 -10 -28 -6 0 5 45 34 99 66 125 73 143
91 70 72 -29 -8 -55 -12 -57 -10 -2 2 22 17 54 34 33 16 77 42 99 56 l40 26
-75 -6 c-86 -6 -83 1 17 39 85 32 97 43 43 38 -25 -3 -47 2 -62 12 -28 20 -42
20 -62 0 -9 -8 -16 -12 -16 -7 0 4 12 19 25 32 47 44 16 34 -42 -15 l-58 -48
55 57 c57 60 156 125 225 148 45 15 67 29 45 29 -8 -1 -46 -14 -83 -30z m-945
-359 c-7 -4 -25 -6 -40 -4 -21 2 -23 1 -8 -5 12 -5 -4 -8 -45 -9 -35 -1 -81
-3 -101 -6 -21 -3 -36 -1 -33 3 3 5 14 6 24 3 11 -3 30 2 43 11 16 11 45 16
98 16 44 0 70 -4 62 -9z m30 -18 c-6 -3 -9 -10 -5 -16 4 -7 -1 -5 -11 3 -17
13 -17 14 1 21 10 3 20 4 23 1 3 -2 -1 -7 -8 -9z m53 -3 c18 -8 17 -9 -7 -9
-16 -1 -28 4 -28 9 0 12 8 12 35 0z m-192 -7 c-7 -2 -19 -2 -25 0 -7 3 -2 5
12 5 14 0 19 -2 13 -5z m74 -9 c-3 -3 -12 -4 -19 -1 -8 3 -5 6 6 6 11 1 17 -2
13 -5z m263 -70 c22 -24 20 -23 -17 6 -24 18 -43 35 -43 37 0 9 37 -18 60 -43z
m1215 -14 c8 -13 -5 -13 -25 0 -13 8 -13 10 2 10 9 0 20 -4 23 -10z m-328
-782 c-3 -8 -6 -5 -6 6 -1 11 2 17 5 13 3 -3 4 -12 1 -19z m52 -88 c0 -9 -4
-8 -9 5 -5 11 -9 27 -9 35 0 9 4 8 9 -5 5 -11 9 -27 9 -35z"/>
<path d="M3338 6923 c7 -3 16 -2 19 1 4 3 -2 6 -13 5 -11 0 -14 -3 -6 -6z"/>
<path d="M2683 6830 c-1 -10 8 -26 20 -37 22 -18 22 -18 6 2 -9 11 -14 25 -12
32 2 6 0 14 -4 16 -5 3 -9 -3 -10 -13z"/>
<path d="M3840 6539 c0 -5 5 -7 10 -4 6 3 10 8 10 11 0 2 -4 4 -10 4 -5 0 -10
-5 -10 -11z"/>
<path d="M3923 6450 c20 -11 40 -20 43 -20 4 0 -5 9 -19 20 -14 11 -33 20 -43
20 -12 0 -5 -8 19 -20z"/>
<path d="M5440 6218 c0 -2 27 -22 60 -43 32 -21 61 -44 64 -52 4 -10 1 -11
-14 -3 -13 7 -21 7 -26 -2 -5 -7 -2 -9 7 -4 8 4 6 1 -4 -8 -11 -8 -24 -13 -30
-10 -7 2 -18 -5 -24 -16 -12 -18 -9 -21 37 -41 56 -24 58 -30 11 -31 -31 -1
-31 -1 -12 -20 11 -10 24 -18 29 -18 4 0 17 -7 28 -16 18 -15 18 -15 -3 -9
-40 11 -25 -10 23 -33 52 -26 54 -36 4 -22 l-33 10 26 -28 c15 -16 27 -31 27
-34 0 -3 -41 10 -92 29 -136 52 -263 61 -395 30 -12 -3 -34 -13 -50 -22 l-28
-16 31 5 c38 6 86 -6 92 -22 2 -7 -5 -12 -17 -12 -20 0 -25 -9 -22 -36 1 -6
-6 -18 -16 -25 -15 -13 -15 -12 -3 11 13 25 13 25 -8 6 -12 -10 -19 -23 -15
-29 3 -6 1 -7 -6 -3 -6 4 -18 0 -27 -8 -19 -20 -4 -20 41 -2 23 10 35 11 37 4
3 -7 30 4 66 25 68 40 77 36 35 -14 l-27 -32 25 8 c13 3 35 14 49 24 61 42 69
37 18 -12 l-33 -30 32 6 c18 4 52 16 75 27 55 26 57 26 22 -11 -29 -31 -29
-31 -4 -24 14 4 41 13 60 21 31 12 33 12 15 -1 -63 -45 -64 -47 -10 -41 28 3
61 8 75 11 25 5 25 5 3 -6 -38 -20 -26 -31 30 -29 77 4 79 0 7 -15 -87 -19
-224 -90 -281 -145 -26 -25 -61 -74 -78 -109 -37 -71 -37 -93 -1 -28 13 23 26
44 29 47 3 3 11 14 17 24 5 11 21 26 35 34 19 11 18 9 -6 -13 -29 -26 -29 -26
-5 -20 24 7 24 7 5 -8 -11 -9 -16 -19 -12 -23 4 -5 13 -2 18 6 9 12 10 12 5
-3 -3 -10 -6 -21 -6 -23 0 -3 -8 0 -17 5 -20 10 -21 9 -28 -104 -3 -62 -3 -66
7 -35 14 44 17 47 27 32 5 -8 18 10 36 53 31 73 40 79 26 16 -5 -22 -7 -41 -5
-41 10 0 64 62 64 73 0 7 9 26 21 42 l20 30 -6 -45 -6 -45 22 33 c14 22 24 29
29 22 5 -8 19 4 39 33 34 50 61 75 42 39 -6 -11 -11 -29 -11 -39 0 -14 9 -9
35 20 20 20 38 37 42 37 4 0 18 10 32 23 l26 22 -23 -26 c-33 -38 -112 -196
-92 -184 6 4 10 -1 10 -9 0 -9 -4 -16 -10 -16 -5 0 -10 -7 -10 -16 0 -10 6
-14 15 -10 18 7 20 -5 3 -23 -7 -8 -8 -11 -3 -8 9 5 12 -37 5 -68 -2 -10 0
-81 4 -122 4 -37 16 -39 17 -2 l1 34 12 -40 13 -40 7 40 c5 22 12 54 16 70 8
29 8 29 9 4 1 -14 4 -29 8 -33 11 -11 42 75 44 124 1 25 3 37 6 28 9 -36 18
-16 16 34 -2 39 0 48 6 33 5 -11 10 -30 10 -43 2 -49 21 -8 22 46 0 37 3 50 8
38 7 -18 8 -18 14 5 4 13 7 53 8 89 1 76 17 56 19 -25 1 -27 4 -43 8 -35 3 9
14 -14 27 -55 22 -75 37 -85 46 -33 5 33 6 32 38 -37 162 -347 268 -803 271
-1170 1 -161 3 -152 -25 -125 -14 13 -22 27 -19 31 3 5 0 9 -6 9 -6 0 -8 -11
-6 -25 3 -14 0 -25 -5 -25 -6 0 -7 -4 -4 -10 3 -5 1 -10 -6 -10 -8 0 -7 -5 2
-16 12 -15 11 -16 -9 -10 -13 4 -22 3 -22 -3 0 -5 -9 -8 -20 -6 -19 4 -19 2
-5 -18 24 -34 18 -43 -12 -16 l-26 24 22 -37 c22 -37 18 -51 -7 -26 -9 9 -10
4 -3 -20 12 -41 -5 -54 -19 -15 -22 58 -23 59 -30 28 -4 -16 -8 -23 -9 -15 -1
12 -3 13 -10 1 -7 -11 -13 -10 -35 4 -15 10 -26 13 -26 6 0 -6 5 -11 10 -11 6
0 10 -5 10 -11 0 -6 -8 -8 -19 -4 -16 5 -18 2 -14 -17 4 -22 4 -22 -11 -4 -18
22 -21 36 -8 36 5 0 9 7 9 15 0 15 -37 21 -50 9 -3 -3 4 -26 16 -50 15 -32 27
-44 43 -44 21 0 77 -44 67 -53 -2 -3 -25 3 -51 14 -36 16 -47 17 -54 7 -6 -10
-8 -10 -8 -1 0 7 -7 10 -15 7 -8 -4 -15 -15 -15 -25 0 -17 -3 -18 -20 -9 -16
9 -18 8 -14 -5 4 -9 14 -20 23 -25 21 -11 58 -77 48 -86 -4 -4 -14 1 -23 12
-8 10 -12 12 -8 4 4 -8 -5 -3 -20 11 -28 28 -111 47 -102 23 7 -18 -19 -49
-41 -49 -12 0 -22 -13 -31 -40 -7 -22 -21 -47 -32 -57 -11 -9 -20 -24 -20 -33
0 -9 -4 -13 -10 -10 -5 3 -10 -2 -11 -12 0 -10 -8 5 -17 34 -14 43 -20 50 -34
42 -11 -6 -19 -5 -24 2 -5 8 -3 9 6 4 9 -5 11 -4 6 3 -5 9 -13 9 -26 2 -13 -7
-21 -7 -25 0 -4 6 -11 7 -17 4 -7 -5 -1 -16 17 -30 17 -13 25 -26 20 -34 -6
-9 -10 -8 -17 4 -5 9 -14 14 -19 11 -5 -4 -7 -10 -4 -15 3 -4 -2 -11 -11 -14
-8 -3 -12 -10 -9 -16 9 -14 -9 -12 -23 2 -10 10 -11 4 -7 -26 l5 -39 -31 41
c-17 23 -33 42 -35 42 -3 0 -3 -4 1 -9 3 -5 1 -12 -5 -16 -5 -3 -10 -16 -10
-28 0 -20 -1 -20 -14 -2 -13 18 -14 18 -21 -4 -5 -17 -12 -21 -27 -18 -18 5
-19 4 -4 -12 9 -10 16 -22 16 -27 0 -5 -4 -4 -8 1 -4 6 -22 22 -41 34 -32 23
-33 23 -22 3 14 -26 14 -55 1 -47 -5 3 -10 1 -10 -6 0 -7 -8 -5 -20 6 -18 17
-20 17 -14 2 3 -10 1 -17 -5 -17 -6 0 -11 4 -11 8 0 4 -13 9 -30 10 -16 1 -30
-2 -30 -8 0 -5 -8 -10 -17 -10 -25 0 -9 -11 24 -16 381 -57 659 -76 792 -53
l76 13 82 84 c161 166 271 368 342 632 26 93 51 264 51 348 l0 62 -60 0 -61 0
5 -32 c3 -18 8 -60 12 -93 5 -48 8 -56 15 -37 5 12 15 22 23 22 11 0 10 -7 -5
-37 -10 -21 -19 -46 -19 -56 0 -10 -7 -25 -15 -33 -8 -9 -15 -27 -16 -42 l-1
-27 -8 29 c-6 18 -5 35 2 46 8 13 8 49 -1 136 -31 314 -159 763 -296 1039 -34
68 -47 105 -38 105 8 0 13 12 13 31 0 23 -9 39 -36 62 -37 33 -89 97 -79 97 3
0 26 -19 52 -42 40 -38 45 -40 38 -18 -6 19 0 16 22 -15 41 -54 73 -83 73 -64
0 8 10 2 21 -13 29 -39 42 -35 24 8 -23 55 -19 53 30 -14 48 -65 72 -81 54
-36 -14 37 -4 41 11 5 7 -17 19 -36 26 -42 13 -10 13 -8 4 16 -17 45 -5 40 35
-15 40 -54 52 -60 36 -16 -15 38 -6 32 20 -14 29 -52 54 -58 28 -7 -7 14 4 7
30 -18 27 -26 39 -33 35 -20 -6 14 5 9 39 -19 26 -21 47 -36 47 -33 0 2 -12
26 -27 53 -67 122 -219 251 -363 308 -25 10 -53 26 -63 37 -23 24 -16 24 30
-1 21 -11 44 -20 52 -20 11 0 10 5 -4 20 -25 28 -9 25 27 -5 48 -40 66 -31 26
13 -22 23 -22 24 -2 14 11 -6 27 -18 34 -27 19 -23 70 -48 70 -35 0 6 14 2 31
-10 43 -31 45 -20 3 28 -48 57 -28 53 35 -6 54 -51 57 -53 39 -19 -6 13 11 1
43 -27 54 -49 75 -49 43 0 -16 24 -12 22 36 -14 54 -41 75 -48 49 -15 -17 20
-8 16 59 -29 23 -16 42 -25 42 -21 0 15 -78 103 -127 144 -67 56 -194 116
-283 135 -73 15 -197 15 -260 -1 -19 -5 -22 -4 -10 4 8 6 11 11 5 11 -5 1 10
10 35 20 25 10 37 19 28 19 -36 2 -17 21 20 21 46 0 72 14 46 24 -30 11 -10
15 32 6 23 -5 53 -6 70 0 16 4 24 9 18 9 -5 1 -19 7 -29 15 -18 13 -17 14 10
12 17 -2 37 -5 45 -9 8 -3 32 -7 54 -9 l39 -4 -36 32 c-51 47 -133 69 -202 56
-72 -15 -136 -46 -190 -94 -41 -36 -63 -42 -32 -9 10 11 9 13 -5 8 -22 -8 -23
6 -2 23 8 8 19 21 25 31 7 15 6 17 -6 13 -21 -9 -19 6 7 33 19 21 20 23 4 23
-16 0 -15 3 5 21 17 15 19 19 7 15 -24 -7 -23 -1 4 24 12 11 18 20 14 20 -5 0
-2 8 5 17 12 15 12 16 -1 8 -8 -5 -22 -10 -30 -10 -8 0 -32 -33 -52 -73 -21
-40 -38 -65 -38 -55 0 15 -2 16 -10 3 -5 -8 -10 -10 -11 -5 -2 29 -18 -37 -19
-80 l-1 -50 -32 80 c-48 119 -119 213 -202 270 -44 30 -105 55 -105 43z m483
-145 c3 -5 -6 -16 -19 -26 l-24 -18 12 26 c11 25 23 32 31 18z m306 -148 c8
-5 16 -9 18 -7 1 1 3 -1 2 -4 0 -4 5 -11 13 -15 9 -6 9 -9 1 -9 -6 0 -15 5
-18 11 -4 6 -13 8 -21 5 -8 -3 -24 -1 -36 4 -13 5 -18 10 -13 11 6 1 -8 5 -30
9 -38 7 -37 8 15 7 30 -1 61 -6 69 -12z m-1052 -51 c-3 -3 -12 -4 -19 -1 -8 3
-5 6 6 6 11 1 17 -2 13 -5z m26 -28 c4 -10 1 -13 -8 -9 -8 3 -12 9 -9 14 7 12
11 11 17 -5z m-33 -36 c-20 -13 -33 -13 -25 0 3 6 14 10 23 10 15 0 15 -2 2
-10z m1193 -1487 c-7 -2 -19 -2 -25 0 -7 3 -2 5 12 5 14 0 19 -2 13 -5z m-109
-215 c-8 -28 -12 -33 -20 -25 -9 8 6 47 17 47 6 0 7 -10 3 -22z m-334 -398 c0
-5 -5 -10 -11 -10 -5 0 -7 5 -4 10 3 6 8 10 11 10 2 0 4 -4 4 -10z m30 -24 c0
-3 -4 -8 -10 -11 -5 -3 -10 -1 -10 4 0 6 5 11 10 11 6 0 10 -2 10 -4z m-179
-126 c5 0 4 -6 -3 -14 -7 -7 -19 -11 -26 -9 -17 7 -59 -22 -67 -47 -8 -26 -25
-26 -18 -1 3 11 20 30 39 43 19 13 34 27 34 32 0 4 7 5 16 2 9 -3 20 -6 25 -6z
m69 -20 c18 -12 2 -12 -25 0 -13 6 -15 9 -5 9 8 0 22 -4 30 -9z"/>
<path d="M5380 6136 c0 -9 30 -14 35 -6 4 6 -3 10 -14 10 -12 0 -21 -2 -21 -4z"/>
<path d="M5836 6026 c-23 -48 -19 -59 4 -12 11 22 18 41 16 43 -2 2 -11 -12
-20 -31z"/>
<path d="M5105 5820 c-3 -5 -1 -10 4 -10 6 0 11 5 11 10 0 6 -2 10 -4 10 -3 0
-8 -4 -11 -10z"/>
<path d="M5049 5783 c-13 -17 -13 -17 6 -3 11 8 22 16 24 17 2 2 0 3 -6 3 -6
0 -17 -8 -24 -17z"/>
<path d="M3058 5739 c3 -28 7 -37 13 -28 7 12 9 12 9 0 0 -8 2 -12 5 -9 5 4
-22 78 -28 78 -1 0 -1 -19 1 -41z"/>
<path d="M3101 5504 c0 -11 3 -14 6 -6 3 7 2 16 -1 19 -3 4 -6 -2 -5 -13z"/>
<path d="M5540 5270 c-6 -11 -8 -20 -6 -20 3 0 10 9 16 20 6 11 8 20 6 20 -3
0 -10 -9 -16 -20z"/>
<path d="M5176 5216 c-8 -33 -3 -42 11 -24 6 7 7 22 3 33 -6 17 -8 16 -14 -9z"/>
<path d="M1991 5056 c-17 -9 -20 -15 -11 -21 9 -6 9 -9 -1 -16 -12 -7 -11 -9
0 -9 20 0 -90 -99 -111 -100 -13 0 -16 7 -13 30 2 17 0 30 -5 30 -5 0 -7 6 -5
13 8 20 -19 60 -42 64 -29 4 -29 -1 -1 -27 l22 -20 -35 -1 c-26 -1 -29 -3 -13
-7 13 -4 20 -14 18 -24 -1 -10 2 -18 7 -18 13 0 11 -67 -1 -75 -8 -5 -7 -11 1
-21 9 -11 8 -14 -7 -14 -17 0 -17 -1 2 -16 10 -8 12 -12 4 -8 -12 5 -12 4 -3
-6 9 -10 9 -16 -2 -26 -7 -8 -20 -14 -27 -14 -10 0 -9 3 2 10 16 10 16 10 -54
13 -13 1 -30 -4 -38 -10 -7 -7 -19 -8 -26 -4 -9 6 -7 12 8 26 11 10 20 24 20
32 0 7 5 13 11 13 5 0 7 5 4 10 -3 6 0 10 8 10 23 0 15 27 -11 39 -13 7 -22
17 -19 25 4 10 -2 12 -26 7 -28 -6 -32 -12 -44 -65 -125 -550 26 -1190 360
-1533 66 -68 86 -83 111 -83 17 0 53 -7 80 -15 130 -40 452 -95 671 -115 127
-12 417 -12 490 0 28 4 43 8 35 9 -8 0 -28 8 -45 17 -16 8 -42 16 -57 16 -18
1 -25 5 -21 15 5 12 -1 14 -27 9 -18 -2 -37 -11 -42 -18 -6 -10 -10 -10 -18 2
-5 8 -10 21 -10 28 0 16 -11 15 -38 -4 -24 -17 -30 -4 -8 19 8 8 12 24 9 35
-5 20 -7 20 -33 7 -15 -8 -30 -11 -34 -8 -3 4 -6 0 -6 -7 0 -9 -5 -7 -15 6 -8
10 -15 14 -15 7 0 -16 -37 -36 -51 -27 -8 4 -7 9 2 15 11 7 10 9 -5 9 -14 0
-17 6 -14 25 4 17 1 25 -8 25 -8 0 -14 5 -14 10 0 6 -7 10 -15 10 -8 0 -15 5
-15 12 0 7 -7 5 -17 -5 -25 -22 -43 -23 -80 -7 -28 13 -33 20 -33 49 0 39 -15
32 -23 -9 -4 -23 -4 -23 -12 8 -6 25 -12 31 -25 27 -12 -4 -24 2 -34 16 -9 13
-17 21 -19 18 -1 -2 -12 -24 -25 -49 l-22 -45 0 67 c0 56 3 66 15 62 9 -4 15
0 15 9 0 22 -35 10 -48 -16 l-11 -22 -7 23 c-7 25 -15 27 -32 10 -9 -9 -12 -5
-12 19 0 18 5 35 10 38 6 4 8 11 4 16 -3 6 -12 2 -21 -10 -8 -12 -11 -27 -7
-34 5 -8 2 -8 -9 2 -9 7 -17 28 -17 45 -1 42 -19 65 -45 55 -29 -11 -43 -10
-22 2 25 15 21 29 -10 30 l-28 1 25 9 c19 7 14 8 -22 5 -52 -4 -50 -8 -31 69
4 18 3 18 -12 -3 -9 -12 -14 -26 -10 -32 3 -5 -3 -14 -14 -19 -18 -10 -19 -9
-11 17 4 15 11 35 15 45 4 9 3 17 -3 17 -6 0 -15 -15 -21 -32 -9 -26 -14 -30
-21 -18 -8 13 -10 12 -10 -4 0 -11 -3 -16 -7 -13 -3 4 -13 1 -21 -6 -13 -10
-15 -8 -9 21 7 32 -6 45 -17 17 -3 -8 -10 -15 -15 -15 -18 0 -22 39 -7 69 21
39 20 44 -4 29 -11 -7 -20 -20 -20 -28 0 -8 -7 -23 -14 -32 -12 -16 -14 -16
-25 8 -7 17 -17 24 -26 20 -12 -4 -13 -2 -6 13 16 29 43 48 48 34 4 -10 8 -9
19 2 9 8 12 19 9 25 -3 5 -2 10 4 10 5 0 12 -6 14 -12 3 -8 6 -6 6 5 1 9 8 17
16 17 8 0 15 4 15 9 0 13 -95 30 -152 27 -26 -2 -45 1 -43 5 3 4 1 9 -3 11 -5
1 -6 30 -2 63 4 33 6 61 5 63 -1 1 -15 -8 -30 -20 -20 -15 -30 -18 -33 -10 -2
7 -10 12 -18 12 -8 0 -14 5 -14 11 0 5 -11 -3 -24 -18 -32 -37 -42 -24 -18 24
22 41 90 111 79 81 -4 -10 -2 -18 3 -18 6 0 10 18 10 40 0 22 -4 40 -10 40 -5
0 -10 -4 -10 -8 0 -4 -23 -25 -50 -45 l-50 -38 6 42 c7 39 6 41 -14 30 -35
-19 -37 -13 -15 47 3 7 0 10 -9 7 -11 -4 -13 3 -10 32 l3 38 -20 -42 c-11 -24
-23 -43 -26 -43 -3 0 -4 4 0 9 3 6 -2 14 -11 19 -14 8 -12 12 10 39 14 17 26
36 26 41 0 6 5 14 12 18 7 4 8 3 4 -4 -9 -14 4 -15 24 -2 10 6 11 10 3 10 -7
0 -13 7 -13 15 0 8 5 14 11 13 6 -2 27 62 49 149 42 164 93 332 141 455 41
109 38 126 -20 94z m-11 -146 c0 -5 -5 -10 -11 -10 -5 0 -7 -6 -3 -12 4 -7 4
-10 -1 -6 -4 4 -14 3 -22 -3 -19 -16 -16 1 4 23 18 20 33 24 33 8z m-262 -169
c16 -10 26 -91 11 -91 -6 0 -7 5 -4 10 4 7 -3 9 -22 5 l-28 -6 24 20 c13 12
18 21 11 21 -7 0 -10 7 -6 17 4 9 1 20 -6 25 -7 4 -8 8 -3 8 6 0 16 -4 23 -9z
m31 -131 c-12 -22 -25 -38 -27 -35 -5 4 37 75 44 75 3 0 -5 -18 -17 -40z m-53
-117 c-1 -43 -7 -87 -14 -98 -11 -19 -11 -19 -12 3 0 13 -4 20 -10 17 -5 -3
-10 1 -10 10 0 9 -4 13 -10 10 -5 -3 -10 1 -10 10 0 9 -4 13 -10 10 -6 -4 -10
5 -10 19 0 17 13 38 38 61 20 19 40 35 44 35 4 0 6 -35 4 -77z m64 -97 c-21
-70 -40 -91 -40 -45 0 11 -4 17 -10 14 -19 -12 -10 20 21 74 44 76 58 55 29
-43z m57 -318 c-3 -8 -6 -5 -6 6 -1 11 2 17 5 13 3 -3 4 -12 1 -19z m113 -72
c0 -3 -4 -8 -10 -11 -5 -3 -10 -1 -10 4 0 6 5 11 10 11 6 0 10 -2 10 -4z m13
-181 c-3 -9 -8 -14 -10 -11 -3 3 -2 9 2 15 9 16 15 13 8 -4z m301 -214 c-9
-17 -25 -36 -36 -42 -18 -9 -17 -6 6 27 14 21 26 48 26 59 1 17 2 18 10 4 7
-11 5 -26 -6 -48z m150 -31 c14 -5 26 -15 26 -21 0 -6 14 -24 30 -39 31 -29
45 -85 15 -60 -13 10 -15 9 -15 -9 0 -12 -4 -20 -10 -16 -5 3 -14 -9 -19 -27
l-9 -33 -1 29 -1 29 -19 -22 c-16 -18 -20 -19 -25 -5 -11 28 -6 39 24 57 17
10 30 26 30 36 0 23 -36 61 -58 61 -13 0 -14 -2 -4 -9 21 -13 -46 -23 -69 -10
-11 5 -24 7 -29 4 -6 -4 -20 -3 -31 0 -38 12 -4 27 65 28 36 1 66 5 66 10 0 9
4 9 34 -3z m168 -197 c-6 -3 -9 -10 -6 -15 4 -7 2 -8 -5 -4 -9 6 -9 11 0 22 6
8 15 12 18 8 3 -4 0 -9 -7 -11z m80 -65 c-9 -9 -12 -9 -12 3 0 12 -2 12 -10
-1 -5 -8 -10 -10 -10 -4 0 18 23 35 34 24 7 -7 6 -14 -2 -22z m238 -12 c0 -2
-7 -7 -16 -10 -8 -3 -12 -2 -9 4 6 10 25 14 25 6z m15 -66 c-3 -5 -23 -9 -43
-9 l-37 1 30 8 c44 11 57 11 50 0z"/>
<path d="M2219 5027 c-4 -35 24 -81 34 -54 2 6 3 -14 2 -46 -1 -32 -5 -60 -8
-64 -4 -3 -21 7 -38 21 -24 20 -34 24 -40 15 -4 -7 -6 -16 -3 -20 2 -4 0 -10
-6 -14 -5 -3 -10 -12 -10 -18 0 -7 4 -6 10 3 7 10 10 11 10 2 0 -7 -7 -15 -15
-18 -21 -8 -19 -24 3 -24 11 0 29 -9 41 -19 12 -11 32 -26 43 -33 32 -21 17
-44 -41 -64 -27 -10 -47 -23 -44 -28 4 -5 -1 -7 -10 -3 -19 7 -21 -1 -7 -23 8
-13 13 -13 30 -2 25 15 70 33 70 28 0 -3 -16 -14 -36 -26 -19 -12 -42 -33 -50
-45 -14 -22 -13 -27 9 -67 28 -50 61 -147 54 -155 -9 -9 -27 7 -27 25 0 12 -3
13 -12 4 -21 -21 -36 -14 -30 16 l5 27 -27 -24 c-28 -26 -33 -18 -15 23 9 19
9 29 1 39 -6 7 -9 24 -6 38 5 19 3 21 -5 9 -6 -8 -11 -10 -11 -4 0 6 -7 11
-15 11 -17 0 -26 -28 -61 -195 -30 -139 -30 -146 -5 -132 11 5 24 10 30 10 14
0 14 -46 0 -72 -13 -25 -5 -35 16 -18 12 10 18 10 30 0 8 -6 19 -9 24 -5 6 3
19 1 30 -4 15 -8 32 -5 77 16 52 24 71 27 176 27 109 1 138 6 106 19 -7 3 14
6 47 7 43 1 54 4 40 10 -16 7 -17 9 -3 9 9 1 20 -4 24 -10 3 -6 15 -8 27 -5
11 3 45 -2 76 -10 75 -19 151 -19 151 1 0 9 -10 15 -26 15 -14 0 -23 4 -19 10
4 6 16 5 33 -2 39 -16 284 -14 323 3 28 11 30 14 13 20 -10 4 -41 8 -69 9 -27
1 -61 5 -75 9 -29 9 34 17 215 26 183 9 246 17 242 29 -2 6 -30 14 -63 18 -87
10 -117 17 -137 35 -23 22 -67 26 -67 7 0 -17 -23 -18 -51 -3 -12 6 -18 17
-15 25 3 9 -1 14 -14 14 -11 0 -20 -4 -20 -10 0 -5 5 -10 10 -10 6 0 10 -5 10
-11 0 -15 -48 -3 -67 16 -8 8 -18 15 -23 15 -5 0 -7 6 -4 14 6 16 -41 56 -67
56 -11 0 -19 -7 -19 -15 0 -8 9 -15 20 -15 11 0 20 -4 20 -10 0 -5 -9 -10 -19
-10 -11 0 -21 -3 -24 -7 -2 -5 -2 -3 -1 4 2 6 -4 17 -12 23 -8 7 -14 21 -14
30 0 10 -16 28 -35 40 -19 12 -35 28 -35 35 0 8 -9 16 -19 20 -12 4 -18 12
-14 21 3 7 0 14 -6 14 -6 0 -11 -4 -11 -10 0 -5 -5 -10 -11 -10 -5 0 -8 4 -5
9 9 14 -18 31 -56 33 -20 2 -34 6 -31 11 2 4 -1 7 -6 7 -6 0 -11 -5 -11 -11 0
-8 -4 -8 -14 0 -11 9 -15 4 -20 -29 -6 -40 -26 -56 -26 -22 -1 22 -24 52 -41
52 -11 0 -11 2 1 10 12 7 10 9 -7 7 -12 0 -20 -4 -17 -8 2 -4 -3 -9 -10 -12
-24 -10 -64 16 -86 56 -14 24 -29 37 -43 38 l-22 0 23 9 c12 5 22 14 22 20 0
6 10 15 23 19 16 7 25 5 35 -7 8 -11 12 -12 12 -3 0 9 10 12 30 9 17 -3 30 -1
30 3 0 9 -65 29 -94 29 -25 0 -98 -21 -113 -33 -21 -16 -15 8 6 27 11 10 17
24 14 32 -3 8 1 21 8 30 20 25 19 44 -2 44 -11 0 -17 5 -14 10 3 6 4 10 2 10
-2 0 -17 -19 -32 -42 l-28 -42 -17 50 c-10 27 -24 63 -33 80 -19 36 -67 79
-68 61z m-22 -203 c-3 -3 -12 -4 -19 -1 -8 3 -5 6 6 6 11 1 17 -2 13 -5z m234
-179 c19 -1 43 -6 54 -12 11 -6 27 -8 35 -6 13 4 13 3 0 -6 -13 -10 -8 -15 13
-12 4 0 6 -2 5 -6 -1 -5 6 -22 15 -40 21 -39 22 -92 3 -138 -19 -44 -36 -45
-36 -2 0 19 -3 37 -7 41 -4 4 -9 19 -11 34 -2 15 -7 29 -13 30 -5 2 -9 12 -9
23 0 10 -4 19 -9 19 -4 0 -5 -17 -2 -37 4 -21 4 -49 0 -63 -5 -17 -7 -19 -8
-7 -1 10 -5 15 -11 12 -5 -3 -10 0 -11 7 0 10 -2 10 -6 1 -10 -27 -21 -11 -10
16 9 25 6 39 -19 97 -38 88 -39 93 -21 70 9 -12 28 -20 48 -21z m-186 -21
c-10 -19 -15 -23 -15 -11 0 20 23 62 28 49 1 -5 -4 -22 -13 -38z m130 -58 c5
-29 1 -60 -13 -101 l-21 -60 0 42 c-1 35 -4 41 -17 36 -14 -5 -15 -3 -5 15 6
11 11 45 11 75 0 29 3 57 7 61 12 12 32 -24 38 -68z m-95 46 c0 -13 -61 -105
-66 -99 -3 2 5 22 17 43 31 56 49 77 49 56z m32 -74 c-7 -7 -12 -8 -12 -2 0
14 12 26 19 19 2 -3 -1 -11 -7 -17z m577 -45 c10 -10 22 -29 26 -43 7 -23 7
-24 -11 -10 -10 8 -22 20 -26 25 -4 6 -8 7 -8 2 0 -4 -14 0 -31 9 -25 12 -29
18 -18 25 22 14 48 11 68 -8z m-412 -105 c-3 -8 -6 -5 -6 6 -1 11 2 17 5 13 3
-3 4 -12 1 -19z m250 -194 c-3 -3 -12 -4 -19 -1 -8 3 -5 6 6 6 11 1 17 -2 13
-5z"/>
<path d="M5570 5024 c0 -8 -4 -13 -9 -10 -5 4 -7 -3 -4 -14 7 -26 9 -25 22 10
6 18 6 30 0 30 -5 0 -9 -7 -9 -16z"/>
<path d="M1715 5020 c-8 -13 35 -13 55 0 11 7 7 10 -17 10 -17 0 -35 -4 -38
-10z"/>
<path d="M1678 4993 c6 -2 18 -2 25 0 6 3 1 5 -13 5 -14 0 -19 -2 -12 -5z"/>
<path d="M1728 4993 c7 -3 16 -2 19 1 4 3 -2 6 -13 5 -11 0 -14 -3 -6 -6z"/>
<path d="M2415 4919 c7 -11 35 -12 35 -1 0 4 -9 8 -20 9 -11 1 -18 -2 -15 -8z"/>
<path d="M2134 4788 c-10 -15 -34 -112 -29 -116 9 -9 24 10 30 39 4 18 16 35
31 41 30 14 30 20 -1 35 -16 7 -27 8 -31 1z"/>
<path d="M2090 4636 c0 -8 4 -17 9 -20 5 -4 7 3 4 14 -6 23 -13 26 -13 6z"/>
<path d="M2805 4610 c4 -6 11 -8 16 -5 14 9 11 15 -7 15 -8 0 -12 -5 -9 -10z"/>
<path d="M1420 4429 c0 -13 5 -31 10 -39 7 -11 8 -5 4 20 -8 43 -14 51 -14 19z"/>
<path d="M6561 4353 c-5 -98 -5 -97 -12 -103 -3 -3 -13 -45 -23 -94 -45 -234
-207 -546 -382 -740 -41 -44 -72 -81 -70 -83 6 -7 85 38 146 83 144 106 267
247 341 392 46 91 81 206 73 239 -4 13 -1 30 6 38 7 9 11 18 8 20 -3 3 -24
-30 -47 -72 -50 -93 -115 -196 -106 -168 3 11 15 45 25 75 27 83 52 282 48
390 l-4 95 -3 -72z m65 -335 c-3 -13 -6 -29 -6 -35 0 -7 -7 -13 -16 -13 -11 0
-13 -6 -9 -19 3 -11 1 -22 -4 -26 -7 -4 -8 1 -4 12 6 16 5 17 -12 3 -17 -14
-18 -14 -1 18 9 17 21 32 26 32 6 0 10 11 10 25 0 14 5 25 11 25 7 0 9 -9 5
-22z"/>
<path d="M5180 4373 c30 -3 59 -8 65 -13 5 -4 134 -12 285 -17 151 -4 257 -9
235 -10 -22 -2 -56 -6 -75 -10 l-35 -6 55 -18 55 -18 -84 1 c-97 0 -130 -16
-37 -19 41 0 77 -8 102 -21 l39 -20 -75 3 c-49 3 -66 1 -50 -5 14 -4 86 -9
160 -10 74 -1 186 -5 248 -8 l112 -7 0 31 c0 17 -3 59 -6 93 l-7 61 -521 -2
c-287 -1 -496 -3 -466 -5z m750 -92 c-8 -5 -49 -5 -90 -1 l-75 7 90 1 c53 1
84 -2 75 -7z"/>
<path d="M1882 4304 c-12 -8 -22 -25 -22 -37 0 -18 3 -16 25 13 34 46 33 50
-3 24z"/>
<path d="M5288 4273 c7 -3 16 -2 19 1 4 3 -2 6 -13 5 -11 0 -14 -3 -6 -6z"/>
<path d="M1432 4195 c0 -16 2 -22 5 -12 2 9 2 23 0 30 -3 6 -5 -1 -5 -18z"/>
<path d="M5340 4216 c0 -2 7 -6 15 -10 8 -3 15 -1 15 4 0 6 -7 10 -15 10 -8 0
-15 -2 -15 -4z"/>
<path d="M5510 4200 c8 -5 20 -10 25 -10 6 0 3 5 -5 10 -8 5 -19 10 -25 10 -5
0 -3 -5 5 -10z"/>
<path d="M2008 4193 c-24 -6 -49 -103 -26 -103 4 0 8 5 8 11 0 6 8 23 18 37
22 32 34 62 24 61 -4 -1 -15 -3 -24 -6z"/>
<path d="M5483 4183 c50 -8 28 -23 -35 -23 -80 0 -68 -11 19 -17 37 -2 102 -8
143 -13 l75 -7 -77 -3 c-43 -1 -82 -4 -88 -5 -5 -1 -38 -3 -72 -4 -94 -2 -54
-16 105 -36 88 -10 171 -15 225 -11 65 4 78 3 52 -4 -19 -5 -75 -13 -123 -16
-155 -12 -104 -24 102 -24 110 0 211 -4 225 -10 18 -7 26 -6 26 1 0 8 5 7 15
-1 20 -17 20 5 1 42 -11 20 -12 30 -3 35 6 3 13 1 15 -5 2 -7 12 -17 23 -23
18 -9 19 -7 14 14 -9 36 11 42 39 12 l24 -26 -3 58 -4 58 -253 0 c-139 1 -302
4 -363 7 -60 3 -98 4 -82 1z"/>
<path d="M1444 4156 c-7 -28 10 -121 33 -184 9 -23 13 -45 9 -49 -8 -8 -6 -11
-43 67 -27 54 -32 60 -33 37 0 -16 4 -26 10 -22 6 3 7 -1 4 -9 -9 -23 -13 -20
-29 17 -8 17 -15 25 -15 17 -1 -10 -4 -9 -10 5 -20 47 -9 -23 14 -93 64 -186
167 -331 346 -483 41 -36 96 -77 123 -92 26 -15 47 -30 47 -32 0 -8 -52 15
-112 50 -32 19 -66 35 -74 35 -7 0 -14 4 -14 10 0 5 -7 7 -15 4 -8 -4 -17 1
-21 10 -3 9 -10 13 -15 10 -5 -2 -19 1 -31 8 -23 12 -29 14 -49 17 -5 0 -7 6
-4 11 3 6 -1 10 -9 10 -27 0 -31 1 -47 13 -8 7 -1 -1 15 -16 36 -33 184 -119
241 -140 22 -9 77 -29 122 -46 45 -17 86 -31 90 -31 4 0 -24 34 -63 75 -177
185 -303 403 -391 676 -47 145 -66 175 -79 125z m-57 -168 c-3 -8 -6 -5 -6 6
-1 11 2 17 5 13 3 -3 4 -12 1 -19z"/>
<path d="M2589 4169 c-10 -6 -4 -9 19 -9 17 0 32 2 32 4 0 9 -39 13 -51 5z"/>
<path d="M6180 4035 c0 -5 5 -17 10 -25 5 -8 10 -10 10 -5 0 6 -5 17 -10 25
-5 8 -10 11 -10 5z"/>
<path d="M5886 3983 c-3 -3 -2 -11 3 -17 6 -8 -5 -12 -37 -13 -316 -11 -402
-17 -402 -24 0 -5 -17 -9 -38 -9 -45 0 -56 -8 -40 -27 6 -7 8 -16 4 -20 -3 -4
-52 -6 -109 -6 -56 1 -97 0 -92 -2 6 -2 36 -10 68 -20 61 -18 71 -30 35 -45
-18 -7 -8 -9 40 -9 34 -1 62 -5 62 -10 0 -9 -82 -21 -153 -21 -47 0 -235 -25
-271 -36 -31 -10 1 -24 107 -48 15 -4 25 -11 22 -16 -6 -9 45 -12 263 -15 34
0 62 3 62 7 0 4 7 8 15 8 8 0 15 -6 15 -12 0 -9 3 -10 8 -2 4 6 17 10 30 9 12
-1 22 2 22 6 0 14 72 15 86 1 12 -11 14 -10 14 12 0 29 11 31 73 17 42 -10 42
-9 23 45 -7 22 -11 44 -9 50 2 7 -8 9 -29 6 -18 -2 -30 -2 -27 2 15 16 117 17
153 2 36 -15 37 -15 30 6 -5 17 -3 20 10 15 9 -4 15 -3 15 1 -1 4 -1 26 0 50
1 41 2 42 29 36 24 -7 26 -6 13 9 -12 15 -11 17 8 17 12 0 30 -4 39 -9 14 -8
17 -3 19 28 2 33 0 36 -26 38 -16 1 -31 -1 -35 -4z m-899 -269 c-3 -3 -12 -4
-19 -1 -8 3 -5 6 6 6 11 1 17 -2 13 -5z"/>
<path d="M5778 3973 c17 -2 47 -2 65 0 17 2 3 4 -33 4 -36 0 -50 -2 -32 -4z"/>
<path d="M5995 3963 c13 -11 18 -36 5 -28 -18 11 -11 -21 9 -39 18 -17 20 -16
26 3 3 12 3 25 0 31 -3 5 -1 10 6 10 19 0 -2 17 -31 25 -14 3 -20 3 -15 -2z"/>
<path d="M5965 3950 c3 -5 8 -10 11 -10 2 0 4 5 4 10 0 6 -5 10 -11 10 -5 0
-7 -4 -4 -10z"/>
<path d="M5258 3823 c7 -3 16 -2 19 1 4 3 -2 6 -13 5 -11 0 -14 -3 -6 -6z"/>
<path d="M5198 3803 c12 -2 30 -2 40 0 9 3 -1 5 -23 4 -22 0 -30 -2 -17 -4z"/>
<path d="M5718 3735 c2 -14 9 -28 15 -32 7 -4 8 0 4 11 -4 10 -7 24 -7 32 0 8
-4 14 -9 14 -4 0 -6 -11 -3 -25z"/>
<path d="M5755 3719 c-4 -6 -5 -12 -2 -15 2 -3 7 2 10 11 7 17 1 20 -8 4z"/>
<path d="M5540 3650 c0 -5 7 -7 15 -4 8 4 15 8 15 10 0 2 -7 4 -15 4 -8 0 -15
-4 -15 -10z"/>
<path d="M5335 3629 c-27 -6 -25 -7 13 -6 23 0 42 1 42 3 0 7 -29 9 -55 3z"/>
<path d="M5648 3632 c-11 -2 -18 -12 -18 -25 0 -13 3 -17 8 -11 4 7 15 13 24
15 10 2 14 9 10 14 -4 6 -15 9 -24 7z"/>
<path d="M5596 3622 c-2 -4 -1 -14 5 -22 7 -12 9 -10 9 8 0 23 -5 28 -14 14z"/>
<path d="M2480 3611 c0 -6 4 -13 10 -16 6 -3 7 1 4 9 -7 18 -14 21 -14 7z"/>
<path d="M6520 3589 c-15 -13 -18 -19 -8 -15 9 2 18 0 21 -7 2 -8 5 -8 11 1 4
7 2 12 -5 12 -8 0 -8 4 1 15 17 21 10 18 -20 -6z"/>
<path d="M1467 3549 c7 -7 15 -10 18 -7 3 3 -2 9 -12 12 -14 6 -15 5 -6 -5z"/>
<path d="M6496 3523 c-7 -7 -30 -14 -58 -16 -9 -1 -14 -5 -12 -9 5 -8 -53 -38
-82 -44 -6 -1 -49 -23 -95 -49 -46 -27 -122 -66 -168 -87 -46 -21 -81 -41 -78
-44 9 -9 180 52 275 98 95 47 189 105 216 136 17 20 19 32 2 15z"/>
<path d="M4505 3223 c-121 -11 -297 -39 -510 -83 -406 -82 -513 -94 -860 -95
-343 0 -481 14 -700 70 -184 48 -186 48 -125 19 93 -44 359 -124 555 -167 276
-61 649 -83 925 -53 180 20 266 36 600 116 391 93 664 127 935 114 83 -4 147
-4 144 0 -3 3 -35 7 -72 8 -61 1 -64 2 -40 15 14 7 37 11 52 8 l26 -5 -24 10
c-14 6 -32 9 -40 8 -9 -1 -21 1 -27 5 -28 17 -340 37 -563 35 -130 -1 -254 -3
-276 -5z m822 -49 c-3 -3 -12 -4 -19 -1 -8 3 -5 6 6 6 11 1 17 -2 13 -5z
m-987 -69 c0 -2 -19 -9 -42 -15 -24 -6 -85 -22 -135 -36 -51 -14 -101 -24
-110 -22 -10 2 14 12 52 22 39 10 99 26 135 36 66 19 100 24 100 15z"/>
<path d="M6350 3208 c-41 -16 -158 -48 -180 -48 -11 0 -20 -5 -20 -11 0 -6 -7
-8 -16 -5 -8 3 -12 2 -9 -4 3 -6 -2 -10 -12 -11 -11 0 -13 -3 -5 -6 26 -10
272 73 272 92 0 6 1 6 -30 -7z"/>
<path d="M1339 3146 c-199 -82 -372 -259 -440 -452 -12 -32 -24 -96 -26 -141
-5 -70 -3 -87 16 -127 12 -25 37 -58 54 -73 l32 -28 -13 -55 c-17 -71 -19
-223 -4 -276 18 -62 68 -129 121 -164 260 -166 708 66 914 475 90 179 135 417
107 566 -11 59 -56 160 -86 197 -19 23 -20 23 -20 4 0 -11 3 -20 6 -19 3 1 7
-2 8 -8 2 -5 8 -18 13 -27 6 -12 6 -25 -1 -37 -10 -20 2 -24 25 -9 6 4 12 -4
13 -18 1 -14 -5 -27 -13 -30 -8 -4 -12 -10 -9 -15 3 -5 1 -9 -5 -9 -5 0 -12 6
-14 13 -4 9 -8 8 -16 -3 -7 -9 -11 -10 -11 -3 0 6 5 15 10 18 8 5 8 11 1 19
-6 7 -7 17 -3 21 4 5 2 5 -5 1 -7 -4 -10 -14 -7 -24 4 -11 -2 -8 -16 8 -15 17
-20 19 -16 7 21 -67 28 -154 17 -237 -23 -181 -81 -333 -189 -495 -211 -317
-519 -443 -612 -250 -21 43 -22 57 -17 158 7 154 14 170 87 196 64 23 129 86
149 141 13 38 7 38 -39 -4 -36 -32 -125 -74 -136 -63 -9 9 96 208 157 298 66
96 129 164 207 221 45 34 51 41 42 58 -13 24 -61 50 -92 50 -41 0 -121 -56
-207 -143 -107 -109 -186 -220 -252 -354 l-52 -106 -18 34 c-23 43 -24 127 -3
200 30 103 128 232 264 349 14 12 19 18 11 14 -9 -5 -12 -3 -7 5 4 6 11 9 15
7 4 -3 47 14 94 38 57 29 82 46 71 50 -8 3 -12 2 -9 -4 9 -14 -18 -12 -35 3
-11 9 -11 8 0 -7 13 -18 13 -19 -1 -14 -9 4 -22 1 -29 -5 -10 -9 -12 -8 -7 5
6 18 -18 33 -35 21 -7 -3 -8 -1 -4 5 4 7 13 12 19 12 16 1 75 28 62 29 -5 0
-35 -10 -66 -23z m-34 -36 c-3 -5 -14 -10 -23 -10 -15 0 -15 2 -2 10 20 13 33
13 25 0z m-11 -31 c-2 -4 -14 -5 -26 -1 -14 3 -19 2 -14 -6 4 -7 15 -12 24
-13 10 0 12 -3 5 -5 -7 -3 -22 0 -34 6 -17 10 -19 14 -8 21 16 10 60 8 53 -2z
m-55 -28 c15 -10 7 -31 -12 -31 -8 0 -7 3 2 9 11 7 10 11 -5 20 -11 6 -14 10
-9 11 6 0 16 -4 24 -9z m-45 -19 c2 -4 -4 -8 -14 -8 -10 0 -16 4 -14 8 3 4 9
8 14 8 5 0 11 -4 14 -8z m301 -32 c-3 -5 -12 -10 -18 -10 -7 0 -6 4 3 10 19
12 23 12 15 0z m99 -48 c2 -4 -4 -8 -14 -8 -10 0 -16 4 -14 8 3 4 9 8 14 8 5
0 11 -4 14 -8z"/>
<path d="M5998 3133 c12 -2 30 -2 40 0 9 3 -1 5 -23 4 -22 0 -30 -2 -17 -4z"/>
<path d="M1962 3106 c7 -8 15 -12 17 -11 5 6 -10 25 -20 25 -5 0 -4 -6 3 -14z"/>
<path d="M6043 3113 c9 -2 25 -2 35 0 9 3 1 5 -18 5 -19 0 -27 -2 -17 -5z"/>
<path d="M1916 3025 c24 -39 24 -40 24 -28 0 6 -9 21 -21 34 l-20 24 17 -30z"/>
<path d="M1996 3007 c3 -10 9 -15 12 -12 3 3 0 11 -7 18 -10 9 -11 8 -5 -6z"/>
<path d="M4461 2754 c0 -11 3 -14 6 -6 3 7 2 16 -1 19 -3 4 -6 -2 -5 -13z"/>
<path d="M4480 2735 c-7 -8 -16 -12 -21 -9 -5 3 -9 -4 -9 -15 0 -28 5 -26 30
9 22 31 22 42 0 15z"/>
<path d="M5622 2719 c-7 -11 -17 -17 -21 -14 -5 3 -17 2 -26 -1 -13 -5 -14 -9
-4 -15 9 -5 5 -10 -13 -14 -32 -8 -49 0 -42 19 3 8 1 17 -5 21 -7 4 -9 -1 -5
-12 5 -16 4 -16 -10 1 -9 11 -16 14 -16 8 0 -20 39 -52 63 -52 24 0 107 63 97
74 -3 3 -11 -4 -18 -15z"/>
<path d="M2375 2611 c-61 -15 -112 -47 -172 -107 -92 -94 -141 -190 -158 -313
-31 -229 229 -295 438 -110 l47 41 10 -27 c5 -14 10 -30 10 -35 0 -14 69 -69
98 -77 47 -14 136 -8 187 11 53 20 165 93 165 107 0 5 4 9 9 9 5 0 11 -17 15
-38 12 -80 102 -115 188 -73 47 23 101 69 134 115 l21 29 7 -50 c15 -117 111
-146 227 -68 28 19 53 35 55 35 2 0 4 -9 4 -19 0 -28 47 -61 86 -61 19 0 34 4
34 9 0 5 16 48 36 96 62 147 175 304 248 342 55 29 53 11 -18 -157 -67 -160
-41 -269 70 -286 92 -13 227 87 288 214 24 51 27 64 16 76 -11 14 -16 10 -42
-27 -75 -105 -150 -164 -195 -152 -24 6 -25 9 -21 60 3 39 20 84 61 167 66
134 73 163 53 211 -38 91 -128 75 -264 -47 -46 -42 -51 -45 -42 -21 19 51 12
91 -21 119 -17 14 -41 26 -54 26 -28 0 -33 -11 -123 -238 -51 -131 -61 -147
-115 -201 -91 -92 -147 -103 -147 -30 0 29 33 124 68 194 24 48 17 74 -27 97
l-33 16 30 16 c77 40 49 122 -49 146 -94 24 -210 -22 -307 -122 -66 -68 -96
-111 -137 -201 -39 -86 -108 -156 -191 -194 -114 -52 -189 -1 -169 117 7 39 7
39 50 38 91 -1 228 90 277 185 31 60 30 133 -2 157 -50 38 -135 33 -222 -11
-89 -46 -209 -201 -247 -320 -15 -45 -114 -142 -173 -169 -125 -57 -197 5
-169 142 34 162 189 349 244 294 19 -19 12 -51 -20 -89 -27 -34 -28 -40 -7
-61 21 -22 39 -20 65 7 52 54 66 157 27 195 -41 38 -82 47 -143 33z m1123 -83
c7 -7 12 -26 12 -42 -1 -24 -8 -36 -33 -51 -23 -14 -33 -30 -38 -55 -10 -66
-144 -239 -203 -265 -42 -18 -56 -9 -56 36 0 110 110 291 219 361 48 30 80 35
99 16z m-541 -14 c16 -42 -79 -147 -170 -189 -28 -13 -53 -22 -55 -20 -7 6 59
115 92 153 56 64 120 90 133 56z"/>
<path d="M5080 2532 c-13 -26 -24 -49 -25 -52 -1 -8 -63 -110 -136 -224 -70
-109 -185 -236 -214 -236 -10 0 -15 5 -12 14 10 26 88 299 104 364 9 37 17 88
18 115 2 47 1 47 -17 27 -10 -11 -32 -21 -48 -21 -64 -3 -71 -4 -79 -18 -7
-11 -10 -10 -13 5 -3 11 -8 0 -12 -26 -14 -78 -114 -425 -140 -484 -28 -63
-24 -85 21 -105 106 -48 275 54 438 264 108 139 249 370 219 358 -8 -3 -14
-13 -15 -22 0 -10 -2 -12 -6 -3 -3 7 1 19 7 28 7 8 10 17 7 20 -3 4 -15 -9
-26 -27 -12 -19 -21 -27 -21 -18 0 8 5 20 12 27 6 6 8 15 3 19 -4 5 -10 2 -12
-5 -3 -6 -10 -9 -16 -5 -6 4 -8 0 -4 -10 3 -9 3 -16 -1 -16 -25 4 -33 -3 -27
-23 5 -19 4 -20 -5 -6 -11 18 -3 51 11 42 5 -3 6 2 3 10 -3 9 -1 16 6 16 6 0
9 4 6 9 -4 5 -1 11 6 13 8 3 8 7 2 11 -6 3 -21 -15 -34 -41z"/>
<path d="M5204 2548 c0 -10 1 -18 3 -18 1 0 7 8 12 18 7 13 6 19 -2 19 -7 0
-13 -9 -13 -19z"/>
<path d="M6973 2563 c-7 -3 -13 -16 -13 -29 0 -81 -111 -293 -205 -391 -61
-64 -96 -78 -123 -51 -19 19 -14 89 13 183 14 47 22 92 19 98 -4 7 -3 9 1 4 8
-7 23 21 39 71 6 18 3 22 -13 22 -13 0 -19 5 -15 14 3 8 0 17 -7 22 -8 4 -10
3 -5 -5 4 -6 2 -18 -4 -26 -8 -9 -10 -28 -6 -48 4 -23 3 -28 -4 -17 -5 8 -10
27 -10 42 0 15 -5 30 -12 34 -6 4 -8 3 -5 -3 4 -6 -2 -18 -12 -27 -13 -11 -21
-14 -26 -7 -12 21 -31 11 -48 -26 -52 -118 -229 -343 -270 -343 -49 0 -37 98
30 255 19 44 36 91 38 103 2 13 7 27 11 30 4 4 4 -1 1 -11 -4 -11 -3 -16 3
-12 16 10 12 29 -10 48 -20 17 -20 16 -16 -8 5 -24 4 -24 -23 -10 -16 8 -32
11 -36 7 -10 -11 -34 28 -29 46 3 10 -4 0 -16 -21 -11 -21 -18 -42 -15 -48 4
-5 1 -8 -5 -7 -11 3 -89 -171 -90 -198 0 -18 -126 -132 -171 -155 -60 -30
-128 -36 -158 -12 -25 20 -39 90 -27 137 5 22 12 26 40 26 84 0 209 73 260
152 38 61 49 97 36 118 -8 12 -10 10 -10 -9 0 -17 -4 -21 -15 -17 -8 3 -21 9
-29 12 -9 3 -16 -4 -20 -22 -13 -49 -122 -144 -201 -174 -39 -15 -38 3 5 69
22 34 39 65 38 69 0 4 2 15 6 24 11 25 -20 67 -49 64 -27 -3 -57 -30 -47 -41
4 -5 2 -5 -4 -2 -25 14 -141 -170 -158 -249 -8 -36 -97 -128 -140 -144 -95
-36 -89 70 19 289 25 52 48 108 51 125 3 25 3 27 -5 11 -5 -11 -10 -16 -10
-11 -1 5 -10 1 -21 -9 -11 -10 -18 -21 -15 -24 2 -4 -5 -7 -15 -7 -10 0 -16 6
-13 13 6 15 -13 18 -22 3 -4 -6 -15 -4 -29 5 -22 15 -24 14 -54 -42 -46 -88
-93 -231 -99 -304 -16 -184 127 -226 286 -83 27 24 51 44 54 44 3 0 8 -11 11
-24 11 -43 54 -84 107 -101 92 -31 229 11 323 98 l46 44 7 -41 c9 -60 58 -106
112 -106 23 0 56 6 74 14 43 18 148 115 186 173 l31 46 0 -67 c0 -118 36 -166
125 -166 137 0 354 203 444 416 24 56 56 181 35 136 -3 -6 -10 -10 -15 -6 -5
3 -9 -3 -10 -13 0 -10 -6 -3 -14 17 -11 28 -14 30 -14 13 -1 -29 -21 -30 -21
-1 0 12 -3 18 -7 15 -3 -4 -11 -3 -17 2 -6 4 -17 6 -23 4z m-1153 -43 c0 -5
-4 -10 -10 -10 -5 0 -10 5 -10 10 0 6 5 10 10 10 6 0 10 -4 10 -10z m235 -40
c3 -6 -1 -7 -9 -4 -18 7 -21 14 -7 14 6 0 13 -4 16 -10z m172 -12 c2 -17 0
-19 -7 -8 -5 8 -6 18 -4 22 8 12 10 10 11 -14z m452 -48 c0 -9 -4 -8 -9 5 -5
11 -9 27 -9 35 0 9 4 8 9 -5 5 -11 9 -27 9 -35z m-122 -2 c-3 -8 -6 -5 -6 6
-1 11 2 17 5 13 3 -3 4 -12 1 -19z"/>
<path d="M4711 2534 c0 -11 3 -14 6 -6 3 7 2 16 -1 19 -3 4 -6 -2 -5 -13z"/>
<path d="M5412 2516 c15 -30 16 -30 14 -3 0 13 -6 24 -13 24 -9 0 -9 -6 -1
-21z"/>
<path d="M5919 2518 c-19 -12 -40 -33 -47 -47 l-12 -26 24 27 c14 15 39 37 58
48 18 11 29 20 23 20 -5 -1 -26 -10 -46 -22z"/>
<path d="M2970 1571 c0 -134 1 -141 20 -141 18 0 20 7 20 56 0 54 0 55 28 52
21 -2 33 -14 55 -55 22 -42 33 -53 53 -53 l24 0 -29 58 -29 57 24 28 c30 35
31 68 2 102 -20 22 -34 27 -95 32 l-73 6 0 -142z m121 89 c21 -12 25 -50 7
-68 -7 -7 -29 -12 -50 -12 l-38 0 0 45 c0 44 1 45 31 45 17 0 39 -5 50 -10z"/>
<path d="M4163 1699 c-52 -15 -76 -65 -71 -149 3 -55 8 -74 27 -94 48 -51 147
-41 178 17 20 38 23 140 4 175 -23 44 -83 66 -138 51z m62 -41 c51 -23 58
-152 9 -184 -32 -21 -72 -11 -84 22 -6 14 -10 48 -10 75 0 40 5 55 25 74 28
29 26 29 60 13z"/>
<path d="M4923 1703 c-34 -3 -43 -8 -43 -23 0 -15 7 -18 38 -17 l37 2 3 -117
c2 -110 4 -118 22 -118 19 0 20 7 20 120 l0 120 35 0 c28 0 35 4 35 20 0 18
-6 20 -52 18 -29 -1 -72 -3 -95 -5z"/>
<path d="M3360 1565 l0 -135 85 0 c68 0 85 3 85 15 0 10 -16 15 -62 17 l-63 3
1 40 1 40 51 3 c37 2 52 7 52 18 0 10 -12 14 -39 14 -47 0 -70 19 -64 54 5 23
10 25 62 28 42 2 56 7 56 18 0 12 -17 16 -82 18 l-83 3 0 -136z"/>
<path d="M3742 1680 c-27 -26 -29 -80 -4 -103 9 -8 38 -25 63 -35 55 -24 64
-35 49 -62 -14 -26 -59 -26 -92 -1 -24 19 -24 19 -36 0 -17 -26 -9 -36 37 -50
78 -23 145 11 143 73 -1 37 -15 50 -89 83 -56 25 -61 32 -40 57 19 24 42 28
72 12 21 -11 31 -11 41 -3 20 16 17 24 -11 37 -42 19 -108 15 -133 -8z"/>
<path d="M4510 1633 c0 -38 3 -98 7 -135 5 -57 9 -68 24 -68 16 0 19 8 19 56
0 54 0 55 28 52 21 -2 33 -14 55 -55 22 -42 33 -53 53 -53 13 0 24 2 24 5 0 2
-14 27 -30 55 l-30 52 26 31 c20 24 24 37 20 61 -10 51 -38 66 -122 66 l-74 0
0 -67z m128 21 c44 -31 21 -74 -40 -74 l-38 0 0 45 c0 43 2 45 28 45 15 0 38
-7 50 -16z"/>
<path d="M5282 1609 c-23 -4 -47 -11 -52 -14 -13 -8 -13 -32 -1 -39 5 -4 7 2
4 13 -3 13 2 20 17 24 22 6 22 6 3 -40 -3 -8 7 -9 39 -1 48 11 287 0 328 -15
38 -15 265 -48 291 -43 16 3 29 1 29 -4 0 -6 15 -9 33 -9 27 2 28 2 7 6 -14 3
-27 9 -30 14 -4 5 -23 10 -43 11 -23 2 -35 7 -33 14 3 7 -3 10 -15 7 -10 -3
-19 -1 -19 5 0 6 8 13 18 15 9 3 -8 4 -38 2 -30 -1 -40 0 -22 2 17 2 32 8 32
12 0 4 15 6 33 5 28 -3 27 -2 -8 7 -22 5 -50 8 -62 6 -12 -2 -24 -1 -25 3 -9
24 -387 39 -486 19z m223 -9 c-16 -4 -23 -8 -15 -9 11 -1 10 -4 -4 -13 -15 -8
-21 -8 -24 0 -2 7 -14 10 -30 6 -19 -4 -23 -3 -13 4 11 8 10 11 -5 15 -10 2
13 5 51 5 52 0 62 -2 40 -8z m-127 -9 c10 -6 8 -10 -9 -14 -13 -4 -25 -4 -28
-2 -2 3 1 5 8 5 7 0 9 5 6 10 -8 12 5 13 23 1z m430 -58 c-10 -2 -26 -2 -35 0
-10 3 -2 5 17 5 19 0 27 -2 18 -5z"/>
<path d="M2438 1573 c7 -3 16 -2 19 1 4 3 -2 6 -13 5 -11 0 -14 -3 -6 -6z"/>
<path d="M5908 1563 c6 -2 18 -2 25 0 6 3 1 5 -13 5 -14 0 -19 -2 -12 -5z"/>
<path d="M2425 1550 c-28 -7 -28 -8 -5 -9 14 0 32 4 40 9 17 11 8 11 -35 0z"/>
<path d="M1548 1543 c7 -3 16 -2 19 1 4 3 -2 6 -13 5 -11 0 -14 -3 -6 -6z"/>
<path d="M5678 1333 c7 -3 16 -2 19 1 4 3 -2 6 -13 5 -11 0 -14 -3 -6 -6z"/>
<path d="M2350 1255 c0 -13 330 -129 509 -180 376 -107 612 -150 961 -175 349
-25 804 30 1237 150 263 72 573 177 598 203 7 7 4 7 -10 2 -125 -47 -550 -145
-825 -189 -284 -46 -744 -79 -950 -69 -360 18 -664 56 -965 119 -132 28 -485
117 -528 133 -15 6 -27 8 -27 6z"/>
</g>
</svg>
